<?xml version="1.0" encoding="utf-8"?>
<!-- Generator: Adobe Illustrator 15.1.0, SVG Export Plug-In . SVG Version: 6.00 Build 0)  -->
<!DOCTYPE svg PUBLIC "-//W3C//DTD SVG 1.1//EN" "http://www.w3.org/Graphics/SVG/1.1/DTD/svg11.dtd">
<svg version="1.1" id="Layer_1" xmlns="http://www.w3.org/2000/svg" xmlns:xlink="http://www.w3.org/1999/xlink" x="0px" y="0px"
	 width="965.715px" height="677.869px" viewBox="0 0 965.715 677.869" enable-background="new 0 0 965.715 677.869"
	 xml:space="preserve">
<g>
	<polygon fill="#C1FFFA" points="422.824,172.838 449.135,172.838 449.135,146.473 456.398,146.473 456.398,172.838 
		482.716,172.838 482.716,180.058 456.398,180.058 456.398,206.208 449.135,206.208 449.135,180.058 422.824,180.058 	"/>
	<g>
		<path fill="#C1FFFA" d="M67.644,291.749c0,21.885,7.562,35.41,35.416,43.764v0.791c-53.321,1.588-67.242-15.123-67.242-58.486
			v-65.652c0-13.52,0.789-24.664-12.741-34.213C16.722,173.18,8.355,169.993,0,167.996v-0.787
			c12.738-1.192,20.296-5.563,26.669-11.536c9.543-9.944,9.148-17.906,9.148-29.846V51.821c0-15.112,1.591-31.424,16.714-41.368
			c15.511-10.35,31.029-10.35,50.528-10.35v0.8c-28.654,7.96-35.416,21.085-35.416,43.755v74.407
			c0,25.459-6.375,41.783-39.79,48.142v0.787c34.615,7.573,39.79,26.65,39.79,54.928L67.644,291.749L67.644,291.749z"/>
		<path fill="#C1FFFA" d="M898.083,44.666c0-21.891-7.555-35.415-35.408-43.774V0.103c53.312-1.591,67.234,15.12,67.234,58.48
			v65.657c0,13.524-0.797,24.671,12.731,34.209c6.363,4.772,14.72,7.967,23.074,9.949v0.807
			c-12.734,1.185-20.293,5.562-26.664,11.534c-9.537,9.944-9.145,17.898-9.145,29.836v74.004c0,15.123-1.584,31.424-16.705,41.379
			c-15.517,10.346-31.029,10.346-50.527,10.346v-0.791c28.644-7.961,35.406-21.088,35.406-43.764v-74.412
			c0-25.455,6.365-41.774,39.787-48.13v-0.807c-34.609-7.561-39.787-26.651-39.787-54.904V44.666H898.083z"/>
		<polygon fill="#C1FFFA" points="165.099,51.245 165.099,54.848 144.108,54.848 144.108,107.222 139.725,107.222 139.725,54.848 
			118.733,54.848 118.733,51.245 		"/>
		<path fill="#C1FFFA" d="M174.472,51.245v25.521h0.162c3.075-4.754,7.113-7.133,12.138-7.133c4.162,0,7.488,1.337,9.983,4.003
			c2.484,2.682,3.721,6.349,3.721,11.021v22.564h-3.93V86.229c0-8.502-3.334-12.745-10.01-12.745c-4.789,0-8.808,2.63-12.064,7.891
			v25.848h-3.919V51.245H174.472z"/>
		<path fill="#C1FFFA" d="M242.178,87.417h-29.049c-0.073,0.648-0.112,1.29-0.112,1.937c0,4.107,1.466,7.599,4.398,10.452
			c2.951,2.858,6.413,4.277,10.424,4.277c4.672,0,9.245-1.814,13.696-5.48v4.448c-4.208,3.257-8.935,4.889-14.172,4.889
			c-5.311,0-9.713-1.845-13.19-5.527c-3.47-3.688-5.211-8.375-5.211-14.064c0-5.396,1.609-9.864,4.816-13.407
			c3.203-3.547,7.229-5.311,12.095-5.311c4.572,0,8.433,1.599,11.585,4.798C240.607,77.613,242.178,81.948,242.178,87.417
			 M213.655,84.261h23.877c-1.38-7.196-5.272-10.777-11.658-10.777c-3.017,0-5.627,0.944-7.829,2.823
			C215.837,78.187,214.382,80.833,213.655,84.261"/>
		<polygon fill="#C1FFFA" points="324.637,51.245 324.637,107.222 321.075,107.222 278.53,58.297 278.53,107.222 274.19,107.222 
			274.19,51.245 277.857,51.245 320.312,100.169 320.312,51.245 		"/>
		<path fill="#C1FFFA" d="M367.558,87.417h-29.062c-0.073,0.648-0.112,1.29-0.112,1.937c0,4.107,1.465,7.599,4.398,10.452
			c2.942,2.858,6.42,4.277,10.428,4.277c4.66,0,9.232-1.814,13.704-5.48v4.448c-4.227,3.257-8.958,4.889-14.183,4.889
			c-5.322,0-9.713-1.845-13.191-5.527c-3.469-3.688-5.209-8.375-5.209-14.064c0-5.396,1.598-9.864,4.816-13.407
			c3.193-3.547,7.239-5.311,12.096-5.311c4.563,0,8.428,1.599,11.576,4.798C365.975,77.613,367.558,81.948,367.558,87.417
			 M339.022,84.261h23.877c-1.389-7.196-5.272-10.777-11.657-10.777c-3.015,0-5.616,0.944-7.83,2.823
			C341.204,78.187,339.75,80.833,339.022,84.261"/>
		<polygon fill="#C1FFFA" points="428.486,70.358 412.555,107.939 410.67,107.939 399.333,78.009 387.903,107.939 386.135,107.939 
			370.35,70.358 374.226,70.358 386.805,100.405 398.366,70.358 400.508,70.358 411.723,100.405 424.584,70.358 		"/>
		<polygon fill="#C1FFFA" points="486.782,51.245 465.032,77.16 465.032,107.222 460.699,107.222 460.699,77.16 438.946,51.245 
			444.179,51.245 462.888,73.413 481.501,51.245 		"/>
		<path fill="#C1FFFA" d="M497.522,69.634c5.342,0,9.786,1.829,13.366,5.488c3.554,3.659,5.345,8.229,5.345,13.701
			c0,5.452-1.791,9.999-5.345,13.646c-3.58,3.648-8.024,5.473-13.366,5.473c-5.343,0-9.806-1.824-13.402-5.473
			c-3.589-3.646-5.387-8.194-5.387-13.646c0-5.473,1.798-10.042,5.387-13.701C487.717,71.463,492.182,69.634,497.522,69.634
			 M497.522,104.088c4.139,0,7.594-1.447,10.377-4.341c2.778-2.908,4.163-6.537,4.163-10.924c0-4.354-1.393-7.99-4.192-10.938
			c-2.781-2.931-6.242-4.401-10.348-4.401c-4.169,0-7.64,1.454-10.445,4.367c-2.783,2.904-4.18,6.572-4.18,10.973
			c0,4.387,1.396,8.016,4.18,10.924C489.883,102.641,493.354,104.088,497.522,104.088"/>
		<path fill="#C1FFFA" d="M550.364,74.001l-2.273,3.69c-3.08-2.815-5.547-4.217-7.418-4.217c-3.684,0-7.629,3.528-11.817,10.577
			v23.17h-3.916V70.358h3.916v9.7h0.157c4.414-6.948,8.703-10.425,12.896-10.425C544.315,69.634,547.143,71.089,550.364,74.001"/>
		<path fill="#C1FFFA" d="M559.141,107.211h-3.918V51.242h3.918V107.211z M585.223,70.358L565.065,87.85l23.278,19.36h-5.381
			l-23.262-19.348l20.363-17.505L585.223,70.358L585.223,70.358z"/>
		<path fill="#C1FFFA" d="M544.836,228.622l25.875,56.381h-4.529l-8.864-19.361H529.95l-8.824,19.361h-4.543l25.881-56.381H544.836
			L544.836,228.622z M555.67,262.042l-12.061-26.355l-12.027,26.355H555.67z"/>
		<path fill="#C1FFFA" d="M608.018,249.223v4.371c-3.534-1.551-6.729-2.318-9.571-2.318c-4.117,0-7.468,1.424-10.045,4.277
			c-2.58,2.854-3.865,6.57-3.865,11.129c0,4.652,1.285,8.357,3.865,11.088c2.577,2.742,6.028,4.1,10.354,4.1
			c3.158,0,6.463-0.701,9.935-2.111v4.076c-3.681,1.266-7.086,1.887-10.242,1.887c-5.4,0-9.76-1.707-13.082-5.125
			c-3.326-3.424-4.986-7.914-4.986-13.469c0-5.791,1.672-10.52,5.029-14.188c3.342-3.674,7.631-5.51,12.834-5.51
			C601.098,247.428,604.354,248.016,608.018,249.223"/>
		<path fill="#C1FFFA" d="M651.614,278.594v3.275c-3.404,2.572-5.883,3.85-7.453,3.85c-0.916,0-1.543-0.307-1.894-0.893
			c-0.348-0.605-0.588-1.834-0.75-3.674c-3.877,3.029-7.721,4.564-11.551,4.564c-2.771,0-5.125-0.91-7.043-2.727
			c-1.926-1.812-2.881-4.018-2.881-6.602c0-4.016,1.844-7.172,5.562-9.484c3.721-2.312,9.016-3.637,15.911-3.982v-4.686
			c0-5.033-2.727-7.527-8.18-7.527c-3.481,0-7.227,1.553-11.264,4.688v-4.051c4.164-2.627,8.141-3.922,11.903-3.922
			c3.343,0,6.089,0.814,8.263,2.451c2.158,1.643,3.242,4.031,3.242,7.16v22.951c0,1.27,0.282,1.879,0.883,1.879
			C647.108,281.87,648.854,280.78,651.614,278.594 M641.518,277.713V266.2c-5.051-0.172-9.241,0.709-12.575,2.674
			c-3.316,1.965-4.978,4.473-4.978,7.521c0,1.707,0.689,3.154,2.072,4.322c1.396,1.172,3.143,1.762,5.215,1.762
			C634.622,282.477,638.045,280.885,641.518,277.713"/>
		<path fill="#C1FFFA" d="M694.883,229.03v55.973h-3.977v-2.885c-3.359,2.404-6.992,3.604-10.896,3.604
			c-5.221,0-9.641-1.842-13.229-5.547c-3.607-3.689-5.396-8.244-5.396-13.645c0-5.469,1.779-10.033,5.314-13.66
			c3.535-3.635,7.969-5.441,13.311-5.441c3.396,0,7.031,0.975,10.896,2.965V229.03H694.883L694.883,229.03z M690.907,278.514
			v-23.799c-3.519-2.305-7.095-3.439-10.73-3.439c-4.252,0-7.737,1.402-10.502,4.213c-2.746,2.824-4.115,6.424-4.115,10.795
			c0,4.469,1.449,8.182,4.398,11.146c2.939,2.965,6.609,4.439,11.016,4.439C684.389,281.87,687.711,280.76,690.907,278.514"/>
		<path fill="#C1FFFA" d="M742.282,265.208h-29.06c-0.08,0.643-0.106,1.287-0.106,1.918c0,4.117,1.459,7.605,4.405,10.459
			c2.937,2.861,6.419,4.285,10.421,4.285c4.661,0,9.231-1.824,13.696-5.477v4.439c-4.225,3.258-8.94,4.887-14.178,4.887
			c-5.314,0-9.719-1.84-13.188-5.521c-3.482-3.689-5.207-8.377-5.207-14.07c0-5.391,1.598-9.859,4.801-13.402
			c3.205-3.535,7.244-5.297,12.109-5.297c4.571,0,8.43,1.588,11.577,4.773C740.704,255.397,742.282,259.729,742.282,265.208
			 M713.749,262.042h23.889c-1.396-7.176-5.289-10.775-11.659-10.775c-3.027,0-5.628,0.938-7.832,2.814
			C715.932,255.963,714.473,258.627,713.749,262.042"/>
		<path fill="#C1FFFA" d="M759.87,248.143v6.5h0.158c2.987-4.811,6.903-7.215,11.739-7.215c5.64,0,9.604,2.938,11.896,8.85
			c3.463-5.912,7.732-8.85,12.799-8.85c3.818,0,6.904,1.355,9.246,4.086c2.34,2.723,3.516,6.332,3.516,10.838v22.65h-3.93v-20.914
			c0-3.996-0.836-7.133-2.514-9.4c-1.685-2.283-4.043-3.412-7.08-3.412c-2.258,0-4.242,0.668-5.912,2.033
			c-1.68,1.361-3.416,3.555-5.197,6.574v25.119h-3.975V264c0-4.076-0.871-7.227-2.615-9.439c-1.752-2.197-4.096-3.285-7.033-3.285
			c-4.274,0-7.979,2.621-11.102,7.881v25.846h-3.938v-36.857L759.87,248.143L759.87,248.143z"/>
		<polygon fill="#C1FFFA" points="853.704,248.143 826.118,303.879 822.094,303.879 834.975,277.838 819.442,248.143 
			823.573,248.143 836.94,273.875 849.674,248.143 		"/>
		<path fill="#C1FFFA" d="M173.111,135.056c0.394-1.069,0.951-1.815,1.651-2.254c0.716-0.426,1.733-0.645,3.075-0.645
			c1.47,0,2.484,0.36,3.087,1.065c0.581,0.703,0.87,2.174,0.87,4.377c0,3.861,0.039,7.45,0.124,10.785
			c0.085,3.334,0.112,4.771,0.112,4.34c0,1.864-0.309,3.104-0.929,3.751c-0.642,0.662-1.756,0.979-3.376,0.979
			c-2.604,0-4.302-1.84-5.083-5.554c-0.286-1.104-0.491-1.947-0.654-2.543c-0.75-2.954-2.545-5.359-5.384-7.243
			c-2.832-1.864-6.159-2.801-9.984-2.801c-6.985,0-12.567,2.549-16.791,7.662c-4.221,5.096-6.325,11.943-6.325,20.539
			c0,8.578,2.143,15.436,6.41,20.529c4.278,5.117,9.929,7.666,16.942,7.666c2.286,0,4.603-0.321,6.978-0.971
			c2.367-0.658,4.692-1.639,6.97-2.926c1.075-0.557,2.522-1.495,4.387-2.812c1.837-1.318,3.164-1.99,3.957-1.99
			c1.21,0,2.243,0.398,3.102,1.214c0.844,0.819,1.265,1.808,1.265,2.985c0,1.188-0.456,2.312-1.389,3.402
			c-0.924,1.081-2.654,2.404-5.16,3.982c-3.318,2.189-6.645,3.775-10.003,4.797c-3.349,1.02-6.876,1.549-10.59,1.549
			c-9.724,0-17.761-3.443-24.109-10.328c-6.355-6.879-9.511-15.683-9.511-26.402c0-10.601,3.203-19.407,9.635-26.42
			c6.421-7.009,14.494-10.518,24.233-10.518c2.595,0,5.25,0.306,7.941,0.941C167.262,132.846,170.121,133.795,173.111,135.056"/>
		<path fill="#C1FFFA" d="M250.672,175.967c0,8.441-2.877,15.328-8.637,20.688c-5.76,5.362-13.221,8.036-22.407,8.036
			c-9.148,0-16.595-2.674-22.346-8.036c-5.752-5.358-8.629-12.247-8.629-20.688c0-8.433,2.877-15.329,8.629-20.667
			c5.751-5.337,13.198-8.007,22.346-8.007c9.14,0,16.601,2.677,22.373,8.038C247.783,160.699,250.672,167.569,250.672,175.967
			 M219.628,196.418c6.073,0,11.043-1.926,14.926-5.77c3.884-3.837,5.83-8.729,5.83-14.684c0-5.961-1.954-10.875-5.856-14.751
			c-3.903-3.885-8.861-5.815-14.899-5.815c-6.026,0-10.989,1.931-14.874,5.815c-3.883,3.877-5.821,8.79-5.821,14.751
			c0,5.98,1.931,10.904,5.795,14.717C208.603,194.499,213.554,196.418,219.628,196.418"/>
		<path fill="#C1FFFA" d="M310.082,203.217c-0.832,0-1.408-0.209-1.748-0.633c-0.341-0.404-0.5-1.201-0.5-2.375v-4.863
			c-2.359,2.957-5.322,5.256-8.865,6.898c-3.551,1.631-7.389,2.447-11.527,2.447c-7.454,0-13.697-2.643-18.713-7.958
			c-5.021-5.294-7.543-11.888-7.543-19.767c0-8.157,2.681-14.946,8.038-20.369c5.373-5.407,12.057-8.122,20.04-8.122
			c4.065,0,7.713,0.727,10.936,2.15c3.245,1.439,6.018,3.562,8.35,6.351v-22.631h-3.14c-3.435,0-5.64-0.314-6.646-0.925
			c-1.005-0.61-1.516-1.719-1.516-3.334c0-1.421,0.406-2.484,1.21-3.188c0.812-0.715,1.988-1.062,3.516-1.062h12.119
			c1.185,0,2.042,0.188,2.576,0.582c0.539,0.396,0.797,1.006,0.797,1.835v66.625h2.665c1.926,0,3.327,0.33,4.201,0.977
			c0.859,0.648,1.288,1.684,1.288,3.104c0,1.334-0.375,2.385-1.11,3.137c-0.75,0.76-1.768,1.121-3.018,1.121H310.082
			L310.082,203.217z M271.359,176.667c0,5.444,1.759,9.901,5.264,13.362c3.508,3.479,7.953,5.204,13.36,5.204
			c5.435,0,9.91-1.811,13.414-5.406c3.504-3.6,5.26-8.19,5.26-13.74c0-5.48-1.744-9.995-5.221-13.538
			c-3.489-3.55-7.976-5.323-13.453-5.323c-5.554,0-10.05,1.788-13.484,5.376C273.08,166.185,271.359,170.875,271.359,176.667"/>
		<path fill="#C1FFFA" d="M341.235,178.508c0.31,5.679,2.234,10.063,5.759,13.152c3.528,3.092,8.344,4.641,14.451,4.641
			c4.614,0,9.643-1.236,15.082-3.688c5.434-2.468,8.718-3.698,9.867-3.698c1.177,0,2.162,0.371,2.959,1.119
			c0.781,0.754,1.175,1.68,1.175,2.789c0,1.127-0.414,2.186-1.229,3.115c-0.835,0.956-2.149,1.88-3.965,2.793
			c-3.937,1.926-8.01,3.41-12.215,4.428c-4.188,1.027-8.355,1.531-12.498,1.531c-8.981,0-16.18-2.584-21.58-7.771
			c-5.404-5.187-8.092-12.058-8.092-20.604c0-8.703,2.857-15.755,8.575-21.161c5.706-5.393,13.147-8.093,22.334-8.093
			c8.309,0,15.214,2.521,20.693,7.57c5.48,5.035,8.212,11.151,8.212,18.319c0,2.199-0.46,3.686-1.385,4.438
			c-0.925,0.742-3.434,1.119-7.535,1.119h-0.896h-39.713V178.508z M341.525,170.76h38.487c-0.592-4.69-2.558-8.459-5.884-11.321
			c-3.327-2.854-7.419-4.284-12.27-4.284c-5.237,0-9.644,1.373-13.235,4.139C345.034,162.058,342.673,165.875,341.525,170.76"/>
		<path fill="#C1FFFA" d="M526.891,203.213h-9.348h-2.66c-1.459,0-2.553-0.361-3.274-1.055c-0.729-0.717-1.097-1.787-1.097-3.203
			c0-1.533,0.422-2.584,1.271-3.188c0.852-0.602,2.446-0.885,4.817-0.885h1.064v-53.278h-0.945c-2.369,0-3.994-0.308-4.885-0.939
			c-0.881-0.629-1.322-1.728-1.322-3.306c0-1.456,0.367-2.531,1.097-3.216c0.723-0.7,1.858-1.041,3.395-1.041h2.541h9.348h13.056
			c9.811,0,17.639,3.165,23.475,9.494c5.842,6.312,8.758,14.86,8.758,25.614c0,5.261-0.844,10.116-2.521,14.604
			c-1.672,4.496-4.117,8.436-7.312,11.828c-2.94,3.062-6.53,5.314-10.772,6.709c-4.232,1.398-9.688,2.104-16.353,2.104
			c-0.789,0-2.11-0.047-3.983-0.127C529.35,203.25,527.911,203.213,526.891,203.213 M526.891,194.885
			c1.263,0.123,2.506,0.203,3.746,0.259c1.246,0.065,2.459,0.101,3.638,0.101c9.692,0,16.799-2.178,21.315-6.509
			c4.516-4.338,6.754-11.18,6.754-20.522c0-9.37-2.256-16.202-6.785-20.479c-4.532-4.277-11.774-6.405-21.754-6.405
			c-1.854,0-3.27,0.02-4.223,0.055c-0.975,0.038-1.873,0.107-2.691,0.224V194.885z"/>
		<path fill="#C1FFFA" d="M592.301,178.508c0.322,5.679,2.24,10.063,5.775,13.152c3.522,3.092,8.336,4.641,14.459,4.641
			c4.6,0,9.627-1.236,15.062-3.688c5.445-2.468,8.722-3.698,9.88-3.698c1.184,0,2.163,0.371,2.944,1.119
			c0.789,0.754,1.197,1.68,1.197,2.789c0,1.127-0.426,2.186-1.258,3.115c-0.828,0.956-2.133,1.88-3.949,2.793
			c-3.949,1.926-8.008,3.41-12.211,4.428c-4.193,1.027-8.363,1.531-12.504,1.531c-8.994,0-16.188-2.584-21.574-7.771
			c-5.406-5.187-8.104-12.058-8.104-20.604c0-8.703,2.86-15.755,8.569-21.161c5.724-5.393,13.176-8.093,22.338-8.093
			c8.316,0,15.23,2.521,20.701,7.57c5.482,5.035,8.217,11.151,8.217,18.319c0,2.199-0.469,3.686-1.396,4.438
			c-0.918,0.742-3.43,1.119-7.527,1.119h-0.883h-39.737V178.508z M592.604,170.76h38.482c-0.588-4.69-2.549-8.459-5.883-11.321
			c-3.334-2.854-7.42-4.284-12.273-4.284c-5.231,0-9.639,1.373-13.229,4.139C596.112,162.058,593.752,165.875,592.604,170.76"/>
		<path fill="#C1FFFA" d="M647.485,198.956v-10.521c0-1.733,0.291-2.974,0.881-3.724c0.596-0.74,1.551-1.119,2.873-1.119
			c1.471,0,2.646,1.098,3.487,3.311c0.568,1.333,1.093,2.34,1.554,3.02c1.504,2.127,3.729,3.824,6.672,5.111
			c2.92,1.275,6.162,1.918,9.696,1.918c3.781,0,6.832-0.855,9.117-2.527c2.293-1.711,3.433-3.93,3.433-6.692
			c0-2.799-0.916-4.797-2.765-5.972c-1.846-1.186-4.983-1.776-9.467-1.776h-2.942c-7.304,0-12.863-1.396-16.691-4.188
			c-3.818-2.81-5.75-6.86-5.75-12.186c0-5.197,1.885-9.244,5.613-12.105c3.731-2.885,8.994-4.324,15.744-4.324
			c2.762,0,5.561,0.42,8.428,1.267c2.86,0.844,4.356,1.271,4.506,1.271c0.396,0,1.15-0.375,2.248-1.145
			c1.113-0.774,2.205-1.161,3.281-1.161c1.217,0,2.108,0.496,2.715,1.479c0.58,0.993,0.873,2.472,0.873,4.438v6.907
			c0,2.095-0.285,3.6-0.855,4.521c-0.567,0.928-1.483,1.404-2.731,1.404c-1.076,0-2.408-1.019-3.979-3.021
			c-1.104-1.383-2.02-2.422-2.727-3.142c-1.906-1.927-3.918-3.32-6.068-4.162c-2.146-0.844-4.662-1.269-7.562-1.269
			c-3.361,0-6.068,0.82-8.125,2.451c-2.066,1.633-3.084,3.714-3.084,6.237c0,2.485,1.055,4.261,3.153,5.316
			c2.113,1.062,6.666,1.684,13.638,1.829c7.436,0.21,12.869,1.635,16.303,4.291c3.443,2.664,5.147,6.771,5.147,12.328
			c0,5.312-1.891,9.577-5.682,12.764c-3.783,3.197-8.904,4.797-15.35,4.797c-2.029,0-4.306-0.207-6.806-0.617
			c-2.506-0.42-5.651-1.115-9.444-2.102c-1.256,0.893-2.32,1.598-3.213,2.031c-0.896,0.449-1.646,0.688-2.261,0.688
			c-1.258,0-2.213-0.48-2.869-1.455C647.805,202.165,647.485,200.778,647.485,198.956"/>
		<path fill="#C1FFFA" d="M717.877,194.885h5.146c1.551,0,2.68,0.324,3.401,0.967c0.736,0.646,1.104,1.693,1.104,3.104
			c0,1.619-0.351,2.746-1.037,3.346c-0.688,0.609-1.965,0.912-3.82,0.912h-18.522c-1.578,0-2.757-0.357-3.558-1.055
			c-0.789-0.715-1.182-1.787-1.182-3.203c0-1.373,0.42-2.396,1.254-3.08c0.83-0.664,2.059-0.987,3.729-0.987h4.498V156.99h-4.434
			c-1.617,0-2.859-0.367-3.701-1.095c-0.844-0.734-1.274-1.783-1.274-3.163c0-1.373,0.395-2.422,1.182-3.104
			c0.791-0.688,1.967-1.035,3.557-1.035h10.234c1.063,0,1.9,0.215,2.514,0.648c0.607,0.434,0.91,1.022,0.91,1.776v43.868H717.877z
			 M706.948,135.922c0-3.149,0.381-5.121,1.155-5.941c0.763-0.821,2.404-1.223,4.929-1.223c2.442,0,4.057,0.339,4.846,1.028
			c0.793,0.681,1.189,2.305,1.189,4.865c0,2.5-0.367,4.055-1.099,4.65c-0.731,0.596-2.379,0.898-4.938,0.898
			c-2.523,0-4.166-0.274-4.931-0.829C707.329,138.817,706.948,137.669,706.948,135.922"/>
		<path fill="#C1FFFA" d="M780.151,200.083c0,5.525-0.283,9.434-0.836,11.725c-0.544,2.32-1.496,4.334-2.828,6.062
			c-2.213,2.924-5.31,5.131-9.273,6.656c-4.002,1.525-8.682,2.285-14.082,2.285c-4.5,0-7.772-0.439-9.848-1.307
			c-2.066-0.873-3.094-2.242-3.094-4.139c0-1.219,0.502-2.293,1.504-3.213c1.01-0.932,2.19-1.406,3.569-1.406
			c1.074,0,2.699,0.145,4.91,0.449c2.213,0.299,3.877,0.445,5.021,0.445c5.842,0,9.975-1.348,12.426-4.031
			c2.439-2.678,3.67-7.271,3.67-13.762v-7.155c-2.404,2.804-5.078,4.843-7.988,6.149c-2.92,1.297-6.262,1.941-10.053,1.941
			c-7.371,0-13.469-2.461-18.295-7.371c-4.828-4.887-7.252-11.104-7.252-18.637c0-7.573,2.486-13.84,7.453-18.822
			c4.979-4.989,11.117-7.48,18.455-7.48c3.035,0,5.994,0.564,8.885,1.678c2.9,1.121,5.83,2.832,8.795,5.121v-4.254
			c0-0.836,0.256-1.446,0.789-1.842c0.523-0.396,1.371-0.587,2.506-0.587h8.935c1.569,0,2.754,0.341,3.555,1.035
			c0.776,0.688,1.176,1.726,1.176,3.106c0,1.578-0.5,2.677-1.479,3.308c-0.982,0.63-2.836,0.936-5.562,0.936h-1.057L780.151,200.083
			L780.151,200.083z M754.493,157.341c-5.17,0-9.385,1.595-12.652,4.798c-3.274,3.195-4.897,7.326-4.897,12.416
			c0,4.988,1.623,9.105,4.897,12.324c3.271,3.203,7.482,4.811,12.652,4.811c5.121,0,9.326-1.607,12.623-4.811
			c3.287-3.219,4.938-7.336,4.938-12.324c0-5.012-1.649-9.145-4.938-12.361C763.819,158.956,759.614,157.341,754.493,157.341"/>
		<path fill="#C1FFFA" d="M802.487,194.885V156.99h-1.129c-2.673,0-4.521-0.314-5.521-0.947c-1.012-0.627-1.514-1.732-1.514-3.311
			c0-1.462,0.416-2.515,1.237-3.156c0.837-0.665,2.166-0.982,4.029-0.982h2.764h5.693c1.057,0,1.879,0.215,2.467,0.648
			c0.603,0.434,0.896,1.022,0.896,1.776v4.019c2.883-2.686,5.727-4.657,8.545-5.949c2.807-1.271,5.74-1.919,8.77-1.919
			c5.955,0,10.642,1.858,14.052,5.563c3.407,3.705,5.104,8.834,5.104,15.368v26.785h2.781c1.965,0,3.396,0.324,4.26,0.966
			c0.865,0.646,1.295,1.694,1.295,3.104c0,1.537-0.467,2.637-1.395,3.289c-0.916,0.646-2.562,0.969-4.92,0.969h-13.064
			c-2.531,0-4.148-0.281-4.857-0.887c-0.7-0.58-1.062-1.721-1.062-3.371c0-1.533,0.414-2.584,1.238-3.188
			c0.836-0.602,2.396-0.885,4.684-0.885h2.06v-24.596c0-4.614-1.041-8.127-3.134-10.556c-2.084-2.415-5.121-3.63-9.098-3.63
			c-4.021,0-7.562,1.355-10.644,4.083c-3.073,2.72-4.612,6.084-4.612,10.103v24.596h2.074c2.356,0,3.954,0.283,4.782,0.885
			c0.836,0.604,1.238,1.652,1.238,3.188c0,1.65-0.35,2.791-1.057,3.371c-0.715,0.604-2.453,0.887-5.207,0.887h-10.758h-3.193
			c-1.617,0-2.828-0.338-3.637-1.025c-0.81-0.688-1.211-1.771-1.211-3.232c0-1.57,0.469-2.646,1.393-3.219
			c0.922-0.566,2.729-0.852,5.406-0.852H802.487z"/>
	</g>
</g>
<g>
	<polygon fill="#C1FFFA" points="883.824,513.445 910.135,513.445 910.135,487.08 917.398,487.08 917.398,513.445 943.716,513.445 
		943.716,520.665 917.398,520.665 917.398,546.814 910.135,546.814 910.135,520.665 883.824,520.665 	"/>
	<g>
		<path fill="#C1FFFA" d="M528.645,632.355c0,21.885,7.562,35.41,35.416,43.764v0.791c-53.322,1.588-67.242-15.123-67.242-58.486
			v-65.652c0-13.52,0.789-24.664-12.741-34.213c-6.355-4.771-14.722-7.959-23.077-9.955v-0.787
			c12.738-1.192,20.296-5.563,26.669-11.537c9.543-9.943,9.147-17.905,9.147-29.846v-74.006c0-15.111,1.592-31.424,16.715-41.367
			c15.511-10.351,31.029-10.351,50.527-10.351v0.8c-28.654,7.96-35.416,21.085-35.416,43.756v74.406
			c0,25.459-6.375,41.783-39.789,48.143v0.787c34.614,7.572,39.789,26.649,39.789,54.928L528.645,632.355L528.645,632.355z"/>
		<path fill="#C1FFFA" d="M1359.083,385.273c0-21.892-7.555-35.416-35.408-43.774v-0.789c53.312-1.591,67.234,15.12,67.234,58.479
			v65.658c0,13.523-0.797,24.67,12.731,34.209c6.363,4.771,14.72,7.967,23.074,9.948v0.808
			c-12.734,1.185-20.293,5.562-26.664,11.533c-9.537,9.944-9.145,17.898-9.145,29.836v74.004c0,15.123-1.584,31.424-16.705,41.379
			c-15.517,10.346-31.029,10.346-50.527,10.346v-0.791c28.644-7.961,35.406-21.088,35.406-43.764v-74.412
			c0-25.455,6.365-41.774,39.787-48.131v-0.807c-34.609-7.561-39.787-26.65-39.787-54.904v-68.828H1359.083z"/>
		<polygon fill="#C1FFFA" points="626.1,391.851 626.1,395.455 605.107,395.455 605.107,447.829 600.725,447.829 600.725,395.455 
			579.732,395.455 579.732,391.851 		"/>
		<path fill="#C1FFFA" d="M635.473,391.851v25.521h0.161c3.075-4.754,7.113-7.133,12.138-7.133c4.162,0,7.488,1.337,9.983,4.002
			c2.483,2.683,3.722,6.35,3.722,11.021v22.564h-3.931v-20.992c0-8.502-3.334-12.745-10.01-12.745c-4.789,0-8.808,2.63-12.063,7.892
			v25.848h-3.92v-55.979H635.473z"/>
		<path fill="#C1FFFA" d="M703.178,428.023h-29.049c-0.072,0.648-0.111,1.291-0.111,1.938c0,4.107,1.465,7.6,4.397,10.452
			c2.951,2.858,6.413,4.276,10.424,4.276c4.672,0,9.245-1.813,13.696-5.479v4.448c-4.208,3.257-8.936,4.889-14.172,4.889
			c-5.312,0-9.713-1.845-13.19-5.527c-3.47-3.688-5.211-8.375-5.211-14.063c0-5.396,1.608-9.864,4.815-13.407
			c3.203-3.547,7.229-5.311,12.096-5.311c4.572,0,8.434,1.599,11.585,4.798C701.607,418.219,703.178,422.554,703.178,428.023
			 M674.654,424.867h23.878c-1.38-7.195-5.272-10.776-11.658-10.776c-3.017,0-5.627,0.944-7.829,2.823
			C676.837,418.793,675.382,421.439,674.654,424.867"/>
		<polygon fill="#C1FFFA" points="785.637,391.851 785.637,447.829 782.075,447.829 739.529,398.904 739.529,447.829 
			735.189,447.829 735.189,391.851 738.857,391.851 781.312,440.775 781.312,391.851 		"/>
		<path fill="#C1FFFA" d="M828.558,428.023h-29.062c-0.073,0.648-0.112,1.291-0.112,1.938c0,4.107,1.465,7.6,4.398,10.452
			c2.942,2.858,6.42,4.276,10.428,4.276c4.66,0,9.232-1.813,13.704-5.479v4.448c-4.227,3.257-8.958,4.889-14.183,4.889
			c-5.322,0-9.713-1.845-13.191-5.527c-3.469-3.688-5.209-8.375-5.209-14.063c0-5.396,1.598-9.864,4.816-13.407
			c3.193-3.547,7.239-5.311,12.096-5.311c4.563,0,8.428,1.599,11.576,4.798C826.975,418.219,828.558,422.554,828.558,428.023
			 M800.022,424.867h23.877c-1.389-7.195-5.272-10.776-11.657-10.776c-3.015,0-5.616,0.944-7.83,2.823
			C802.204,418.793,800.75,421.439,800.022,424.867"/>
		<polygon fill="#C1FFFA" points="889.486,410.964 873.555,448.545 871.67,448.545 860.333,418.615 848.903,448.545 
			847.135,448.545 831.35,410.964 835.226,410.964 847.805,441.011 859.366,410.964 861.508,410.964 872.723,441.011 
			885.584,410.964 		"/>
		<polygon fill="#C1FFFA" points="947.782,391.851 926.032,417.767 926.032,447.829 921.699,447.829 921.699,417.767 
			899.946,391.851 905.179,391.851 923.888,414.019 942.501,391.851 		"/>
		<path fill="#C1FFFA" d="M958.522,410.24c5.342,0,9.786,1.83,13.366,5.488c3.554,3.66,5.345,8.229,5.345,13.701
			c0,5.452-1.791,9.999-5.345,13.646c-3.58,3.648-8.024,5.473-13.366,5.473c-5.343,0-9.806-1.824-13.402-5.473
			c-3.589-3.646-5.387-8.194-5.387-13.646c0-5.473,1.798-10.041,5.387-13.701C948.717,412.07,953.182,410.24,958.522,410.24
			 M958.522,444.695c4.139,0,7.594-1.447,10.377-4.342c2.778-2.908,4.163-6.537,4.163-10.924c0-4.354-1.393-7.99-4.192-10.938
			c-2.781-2.932-6.242-4.401-10.348-4.401c-4.169,0-7.64,1.454-10.445,4.367c-2.783,2.903-4.18,6.571-4.18,10.974
			c0,4.387,1.396,8.016,4.18,10.924C950.883,443.248,954.354,444.695,958.522,444.695"/>
		<path fill="#C1FFFA" d="M1011.364,414.607l-2.273,3.69c-3.08-2.815-5.547-4.217-7.418-4.217c-3.684,0-7.629,3.528-11.817,10.577
			v23.17h-3.916v-36.863h3.916v9.7h0.157c4.414-6.948,8.703-10.425,12.896-10.425
			C1005.315,410.24,1008.143,411.695,1011.364,414.607"/>
		<path fill="#C1FFFA" d="M1020.141,447.818h-3.918v-55.969h3.918V447.818z M1046.223,410.964l-20.157,17.492l23.278,19.359h-5.381
			l-23.262-19.348l20.363-17.505L1046.223,410.964L1046.223,410.964z"/>
		<path fill="#C1FFFA" d="M1005.836,569.228l25.875,56.381h-4.529l-8.864-19.361H990.95l-8.824,19.361h-4.543l25.881-56.381
			H1005.836L1005.836,569.228z M1016.67,602.648l-12.061-26.355l-12.027,26.355H1016.67z"/>
		<path fill="#C1FFFA" d="M1069.018,589.83v4.371c-3.534-1.551-6.729-2.318-9.571-2.318c-4.117,0-7.468,1.424-10.045,4.277
			c-2.58,2.854-3.865,6.57-3.865,11.129c0,4.652,1.285,8.357,3.865,11.088c2.577,2.742,6.028,4.1,10.354,4.1
			c3.158,0,6.463-0.701,9.935-2.111v4.076c-3.681,1.266-7.086,1.887-10.242,1.887c-5.4,0-9.76-1.707-13.082-5.125
			c-3.326-3.424-4.986-7.914-4.986-13.469c0-5.791,1.672-10.52,5.029-14.188c3.342-3.674,7.631-5.51,12.834-5.51
			C1062.098,588.035,1065.354,588.623,1069.018,589.83"/>
		<path fill="#C1FFFA" d="M1112.614,619.201v3.275c-3.404,2.572-5.883,3.85-7.453,3.85c-0.916,0-1.543-0.307-1.894-0.893
			c-0.348-0.605-0.588-1.834-0.75-3.674c-3.877,3.029-7.721,4.564-11.551,4.564c-2.771,0-5.125-0.91-7.043-2.727
			c-1.926-1.812-2.881-4.018-2.881-6.602c0-4.016,1.844-7.172,5.562-9.484c3.721-2.312,9.016-3.637,15.911-3.982v-4.686
			c0-5.033-2.727-7.527-8.18-7.527c-3.481,0-7.227,1.553-11.264,4.688v-4.051c4.164-2.627,8.141-3.922,11.903-3.922
			c3.343,0,6.089,0.814,8.263,2.451c2.158,1.643,3.242,4.031,3.242,7.16v22.951c0,1.27,0.282,1.879,0.883,1.879
			C1108.108,622.476,1109.854,621.386,1112.614,619.201 M1102.518,618.32v-11.514c-5.051-0.172-9.241,0.709-12.575,2.674
			c-3.316,1.965-4.978,4.473-4.978,7.521c0,1.707,0.689,3.154,2.072,4.322c1.396,1.172,3.143,1.762,5.215,1.762
			C1095.622,623.083,1099.045,621.492,1102.518,618.32"/>
		<path fill="#C1FFFA" d="M1155.883,569.636v55.973h-3.977v-2.885c-3.359,2.404-6.992,3.604-10.896,3.604
			c-5.221,0-9.641-1.842-13.229-5.547c-3.607-3.689-5.396-8.244-5.396-13.645c0-5.469,1.779-10.033,5.314-13.66
			c3.535-3.635,7.969-5.441,13.311-5.441c3.396,0,7.031,0.975,10.896,2.965v-21.363H1155.883L1155.883,569.636z M1151.907,619.121
			v-23.799c-3.519-2.305-7.095-3.439-10.73-3.439c-4.252,0-7.737,1.402-10.502,4.213c-2.746,2.824-4.115,6.424-4.115,10.795
			c0,4.469,1.449,8.182,4.398,11.146c2.939,2.965,6.609,4.439,11.016,4.439C1145.389,622.476,1148.711,621.367,1151.907,619.121"/>
		<path fill="#C1FFFA" d="M1203.282,605.814h-29.06c-0.08,0.643-0.106,1.287-0.106,1.918c0,4.117,1.459,7.605,4.405,10.459
			c2.937,2.861,6.419,4.285,10.421,4.285c4.661,0,9.231-1.824,13.696-5.477v4.439c-4.225,3.258-8.94,4.887-14.178,4.887
			c-5.314,0-9.719-1.84-13.188-5.521c-3.482-3.689-5.207-8.377-5.207-14.07c0-5.391,1.598-9.859,4.801-13.402
			c3.205-3.535,7.244-5.297,12.109-5.297c4.571,0,8.43,1.588,11.577,4.773C1201.704,596.003,1203.282,600.335,1203.282,605.814
			 M1174.749,602.648h23.889c-1.396-7.176-5.289-10.775-11.659-10.775c-3.027,0-5.628,0.938-7.832,2.814
			C1176.932,596.57,1175.473,599.234,1174.749,602.648"/>
		<path fill="#C1FFFA" d="M1220.87,588.75v6.5h0.158c2.987-4.811,6.903-7.215,11.739-7.215c5.64,0,9.604,2.938,11.896,8.85
			c3.463-5.912,7.732-8.85,12.799-8.85c3.818,0,6.904,1.355,9.246,4.086c2.34,2.723,3.516,6.332,3.516,10.838v22.65h-3.93v-20.914
			c0-3.996-0.836-7.133-2.514-9.4c-1.685-2.283-4.043-3.412-7.08-3.412c-2.258,0-4.242,0.668-5.912,2.033
			c-1.68,1.361-3.416,3.555-5.197,6.574v25.119h-3.975v-21.002c0-4.076-0.871-7.227-2.615-9.439
			c-1.752-2.197-4.096-3.285-7.033-3.285c-4.274,0-7.979,2.621-11.102,7.881v25.846h-3.938v-36.857L1220.87,588.75L1220.87,588.75z"
			/>
		<polygon fill="#C1FFFA" points="1314.704,588.75 1287.118,644.486 1283.094,644.486 1295.975,618.445 1280.442,588.75 
			1284.573,588.75 1297.94,614.482 1310.674,588.75 		"/>
		<path fill="#C1FFFA" d="M634.111,475.663c0.394-1.069,0.951-1.815,1.65-2.255c0.717-0.426,1.733-0.645,3.075-0.645
			c1.47,0,2.483,0.36,3.087,1.065c0.581,0.702,0.87,2.174,0.87,4.377c0,3.86,0.039,7.45,0.124,10.784s0.111,4.771,0.111,4.341
			c0,1.864-0.309,3.104-0.928,3.751c-0.643,0.662-1.756,0.979-3.377,0.979c-2.604,0-4.302-1.84-5.082-5.554
			c-0.287-1.104-0.492-1.946-0.654-2.543c-0.75-2.954-2.545-5.358-5.385-7.243c-2.832-1.863-6.158-2.801-9.983-2.801
			c-6.985,0-12.567,2.549-16.791,7.662c-4.222,5.096-6.325,11.943-6.325,20.539c0,8.578,2.143,15.436,6.41,20.529
			c4.277,5.117,9.929,7.666,16.941,7.666c2.287,0,4.604-0.321,6.979-0.971c2.367-0.658,4.691-1.639,6.971-2.926
			c1.074-0.557,2.521-1.495,4.387-2.812c1.836-1.318,3.164-1.99,3.957-1.99c1.209,0,2.242,0.398,3.102,1.214
			c0.844,0.819,1.266,1.808,1.266,2.985c0,1.188-0.457,2.312-1.39,3.402c-0.924,1.081-2.653,2.404-5.16,3.982
			c-3.317,2.189-6.646,3.775-10.003,4.797c-3.35,1.02-6.876,1.549-10.59,1.549c-9.725,0-17.762-3.443-24.109-10.328
			c-6.354-6.879-9.511-15.683-9.511-26.402c0-10.601,3.203-19.406,9.636-26.42c6.42-7.008,14.493-10.518,24.232-10.518
			c2.595,0,5.25,0.307,7.941,0.941C628.262,473.453,631.121,474.402,634.111,475.663"/>
		<path fill="#C1FFFA" d="M711.672,516.574c0,8.441-2.877,15.328-8.637,20.688c-5.76,5.362-13.221,8.036-22.407,8.036
			c-9.147,0-16.595-2.674-22.346-8.036c-5.753-5.358-8.63-12.247-8.63-20.688c0-8.434,2.877-15.329,8.63-20.668
			c5.751-5.336,13.198-8.006,22.346-8.006c9.14,0,16.601,2.676,22.373,8.037C708.783,501.306,711.672,508.175,711.672,516.574
			 M680.628,537.025c6.073,0,11.043-1.926,14.927-5.77c3.883-3.837,5.829-8.729,5.829-14.684c0-5.961-1.954-10.875-5.856-14.752
			c-3.902-3.885-8.86-5.814-14.898-5.814c-6.025,0-10.988,1.932-14.874,5.814c-3.883,3.877-5.821,8.791-5.821,14.752
			c0,5.98,1.932,10.904,5.795,14.717C669.604,535.105,674.555,537.025,680.628,537.025"/>
		<path fill="#C1FFFA" d="M771.082,543.824c-0.832,0-1.408-0.209-1.748-0.633c-0.341-0.404-0.5-1.201-0.5-2.375v-4.863
			c-2.359,2.957-5.322,5.256-8.865,6.898c-3.551,1.631-7.389,2.447-11.527,2.447c-7.453,0-13.696-2.643-18.713-7.958
			c-5.021-5.294-7.543-11.888-7.543-19.767c0-8.157,2.682-14.946,8.039-20.369c5.373-5.407,12.057-8.122,20.039-8.122
			c4.065,0,7.713,0.728,10.937,2.149c3.245,1.439,6.018,3.562,8.35,6.352v-22.631h-3.14c-3.436,0-5.641-0.314-6.646-0.926
			c-1.005-0.609-1.516-1.719-1.516-3.334c0-1.42,0.406-2.483,1.21-3.188c0.812-0.715,1.987-1.062,3.517-1.062h12.118
			c1.185,0,2.042,0.188,2.576,0.582c0.539,0.396,0.797,1.006,0.797,1.836v66.625h2.665c1.926,0,3.327,0.33,4.201,0.977
			c0.859,0.648,1.288,1.684,1.288,3.104c0,1.334-0.375,2.385-1.11,3.137c-0.75,0.76-1.768,1.121-3.018,1.121H771.082
			L771.082,543.824z M732.359,517.273c0,5.444,1.759,9.901,5.264,13.362c3.508,3.479,7.953,5.204,13.359,5.204
			c5.436,0,9.91-1.811,13.414-5.406c3.505-3.6,5.261-8.19,5.261-13.74c0-5.48-1.744-9.994-5.222-13.537
			c-3.488-3.551-7.976-5.323-13.453-5.323c-5.553,0-10.049,1.788-13.483,5.376C734.08,506.792,732.359,511.482,732.359,517.273"/>
		<path fill="#C1FFFA" d="M802.235,519.115c0.31,5.679,2.234,10.063,5.759,13.152c3.528,3.092,8.344,4.641,14.451,4.641
			c4.614,0,9.643-1.236,15.082-3.688c5.434-2.468,8.718-3.698,9.867-3.698c1.177,0,2.162,0.371,2.959,1.119
			c0.781,0.754,1.175,1.68,1.175,2.789c0,1.127-0.414,2.186-1.229,3.115c-0.835,0.956-2.149,1.88-3.965,2.793
			c-3.937,1.926-8.01,3.41-12.215,4.428c-4.188,1.027-8.355,1.531-12.498,1.531c-8.981,0-16.18-2.584-21.58-7.771
			c-5.404-5.187-8.092-12.058-8.092-20.604c0-8.703,2.857-15.755,8.575-21.161c5.706-5.393,13.147-8.093,22.334-8.093
			c8.309,0,15.214,2.521,20.693,7.57c5.48,5.035,8.212,11.15,8.212,18.318c0,2.199-0.46,3.686-1.385,4.438
			c-0.925,0.742-3.434,1.119-7.535,1.119h-0.896h-39.713V519.115z M802.525,511.367h38.487c-0.592-4.69-2.558-8.459-5.884-11.321
			c-3.327-2.854-7.419-4.284-12.27-4.284c-5.237,0-9.644,1.373-13.235,4.139C806.034,502.665,803.673,506.482,802.525,511.367"/>
		<path fill="#C1FFFA" d="M987.891,543.82h-9.348h-2.66c-1.459,0-2.553-0.361-3.274-1.055c-0.729-0.717-1.097-1.787-1.097-3.203
			c0-1.533,0.422-2.584,1.271-3.188c0.852-0.602,2.446-0.885,4.817-0.885h1.064v-53.278h-0.945c-2.369,0-3.994-0.308-4.885-0.938
			c-0.881-0.629-1.322-1.729-1.322-3.307c0-1.456,0.367-2.531,1.097-3.216c0.723-0.7,1.858-1.041,3.395-1.041h2.541h9.348h13.056
			c9.811,0,17.639,3.165,23.475,9.494c5.842,6.312,8.758,14.86,8.758,25.614c0,5.261-0.844,10.115-2.521,14.604
			c-1.672,4.496-4.117,8.436-7.312,11.828c-2.94,3.062-6.53,5.314-10.772,6.709c-4.232,1.398-9.688,2.104-16.353,2.104
			c-0.789,0-2.11-0.047-3.983-0.127C990.35,543.857,988.911,543.82,987.891,543.82 M987.891,535.492
			c1.263,0.123,2.506,0.203,3.746,0.259c1.246,0.065,2.459,0.101,3.638,0.101c9.692,0,16.799-2.178,21.315-6.509
			c4.516-4.338,6.754-11.18,6.754-20.522c0-9.369-2.256-16.201-6.785-20.479c-4.532-4.277-11.774-6.404-21.754-6.404
			c-1.854,0-3.27,0.02-4.223,0.055c-0.975,0.037-1.873,0.107-2.691,0.224V535.492z"/>
		<path fill="#C1FFFA" d="M1053.301,519.115c0.322,5.679,2.24,10.063,5.775,13.152c3.522,3.092,8.336,4.641,14.459,4.641
			c4.6,0,9.627-1.236,15.062-3.688c5.445-2.468,8.722-3.698,9.88-3.698c1.184,0,2.163,0.371,2.944,1.119
			c0.789,0.754,1.197,1.68,1.197,2.789c0,1.127-0.426,2.186-1.258,3.115c-0.828,0.956-2.133,1.88-3.949,2.793
			c-3.949,1.926-8.008,3.41-12.211,4.428c-4.193,1.027-8.363,1.531-12.504,1.531c-8.994,0-16.188-2.584-21.574-7.771
			c-5.406-5.187-8.104-12.058-8.104-20.604c0-8.703,2.86-15.755,8.569-21.161c5.724-5.393,13.176-8.093,22.338-8.093
			c8.316,0,15.23,2.521,20.701,7.57c5.482,5.035,8.217,11.15,8.217,18.318c0,2.199-0.469,3.686-1.396,4.438
			c-0.918,0.742-3.43,1.119-7.527,1.119h-0.883h-39.737V519.115z M1053.604,511.367h38.482c-0.588-4.69-2.549-8.459-5.883-11.321
			c-3.334-2.854-7.42-4.284-12.273-4.284c-5.231,0-9.639,1.373-13.229,4.139C1057.112,502.665,1054.752,506.482,1053.604,511.367"/>
		<path fill="#C1FFFA" d="M1108.485,539.562v-10.521c0-1.733,0.291-2.974,0.881-3.724c0.596-0.74,1.551-1.119,2.873-1.119
			c1.471,0,2.646,1.098,3.487,3.311c0.568,1.333,1.093,2.34,1.554,3.02c1.504,2.127,3.729,3.824,6.672,5.111
			c2.92,1.275,6.162,1.918,9.696,1.918c3.781,0,6.832-0.855,9.117-2.527c2.293-1.711,3.433-3.93,3.433-6.692
			c0-2.799-0.916-4.797-2.765-5.972c-1.846-1.186-4.983-1.776-9.467-1.776h-2.942c-7.304,0-12.863-1.396-16.691-4.188
			c-3.818-2.81-5.75-6.86-5.75-12.186c0-5.197,1.885-9.244,5.613-12.105c3.731-2.885,8.994-4.323,15.744-4.323
			c2.762,0,5.561,0.42,8.428,1.267c2.86,0.844,4.356,1.271,4.506,1.271c0.396,0,1.15-0.375,2.248-1.145
			c1.113-0.775,2.205-1.162,3.281-1.162c1.217,0,2.108,0.496,2.715,1.479c0.58,0.993,0.873,2.472,0.873,4.438v6.906
			c0,2.096-0.285,3.6-0.855,4.521c-0.567,0.928-1.483,1.404-2.731,1.404c-1.076,0-2.408-1.02-3.979-3.021
			c-1.104-1.383-2.02-2.422-2.727-3.143c-1.906-1.927-3.918-3.319-6.068-4.162c-2.146-0.844-4.662-1.269-7.562-1.269
			c-3.361,0-6.068,0.82-8.125,2.451c-2.066,1.633-3.084,3.714-3.084,6.237c0,2.484,1.055,4.261,3.153,5.315
			c2.113,1.062,6.666,1.685,13.638,1.829c7.436,0.21,12.869,1.635,16.303,4.291c3.443,2.664,5.147,6.771,5.147,12.328
			c0,5.312-1.891,9.577-5.682,12.764c-3.783,3.197-8.904,4.797-15.35,4.797c-2.029,0-4.306-0.207-6.806-0.617
			c-2.506-0.42-5.651-1.115-9.444-2.102c-1.256,0.893-2.32,1.598-3.213,2.031c-0.896,0.449-1.646,0.688-2.261,0.688
			c-1.258,0-2.213-0.48-2.869-1.455C1108.805,542.771,1108.485,541.384,1108.485,539.562"/>
		<path fill="#C1FFFA" d="M1178.877,535.492h5.146c1.551,0,2.68,0.324,3.401,0.967c0.736,0.646,1.104,1.693,1.104,3.104
			c0,1.619-0.351,2.746-1.037,3.346c-0.688,0.609-1.965,0.912-3.82,0.912h-18.522c-1.578,0-2.757-0.357-3.558-1.055
			c-0.789-0.715-1.182-1.787-1.182-3.203c0-1.373,0.42-2.396,1.254-3.08c0.83-0.664,2.059-0.987,3.729-0.987h4.498v-37.897h-4.434
			c-1.617,0-2.859-0.367-3.701-1.096c-0.844-0.734-1.274-1.783-1.274-3.163c0-1.373,0.395-2.422,1.182-3.104
			c0.791-0.688,1.967-1.035,3.557-1.035h10.234c1.063,0,1.9,0.216,2.514,0.648c0.607,0.434,0.91,1.022,0.91,1.776v43.868H1178.877z
			 M1167.948,476.529c0-3.149,0.381-5.121,1.155-5.941c0.763-0.82,2.404-1.223,4.929-1.223c2.442,0,4.057,0.339,4.846,1.027
			c0.793,0.682,1.189,2.305,1.189,4.865c0,2.5-0.367,4.055-1.099,4.65s-2.379,0.898-4.938,0.898c-2.523,0-4.166-0.275-4.931-0.83
			C1168.329,479.423,1167.948,478.275,1167.948,476.529"/>
		<path fill="#C1FFFA" d="M1241.151,540.689c0,5.525-0.283,9.434-0.836,11.725c-0.544,2.32-1.496,4.334-2.828,6.062
			c-2.213,2.924-5.31,5.131-9.273,6.656c-4.002,1.525-8.682,2.285-14.082,2.285c-4.5,0-7.772-0.439-9.848-1.307
			c-2.066-0.873-3.094-2.242-3.094-4.139c0-1.219,0.502-2.293,1.504-3.213c1.01-0.932,2.19-1.406,3.569-1.406
			c1.074,0,2.699,0.145,4.91,0.449c2.213,0.299,3.877,0.445,5.021,0.445c5.842,0,9.975-1.348,12.426-4.031
			c2.439-2.678,3.67-7.271,3.67-13.762v-7.155c-2.404,2.804-5.078,4.843-7.988,6.149c-2.92,1.297-6.262,1.941-10.053,1.941
			c-7.371,0-13.469-2.461-18.295-7.371c-4.828-4.887-7.252-11.104-7.252-18.637c0-7.572,2.486-13.84,7.453-18.822
			c4.979-4.988,11.117-7.479,18.455-7.479c3.035,0,5.994,0.563,8.885,1.678c2.9,1.121,5.83,2.832,8.795,5.121v-4.254
			c0-0.836,0.256-1.446,0.789-1.843c0.523-0.396,1.371-0.586,2.506-0.586h8.935c1.569,0,2.754,0.341,3.555,1.035
			c0.776,0.688,1.176,1.726,1.176,3.105c0,1.578-0.5,2.678-1.479,3.309c-0.982,0.629-2.836,0.936-5.562,0.936h-1.057
			L1241.151,540.689L1241.151,540.689z M1215.493,497.947c-5.17,0-9.385,1.596-12.652,4.799c-3.274,3.195-4.897,7.326-4.897,12.416
			c0,4.988,1.623,9.105,4.897,12.324c3.271,3.203,7.482,4.811,12.652,4.811c5.121,0,9.326-1.607,12.623-4.811
			c3.287-3.219,4.938-7.336,4.938-12.324c0-5.012-1.649-9.145-4.938-12.361C1224.819,499.562,1220.614,497.947,1215.493,497.947"/>
		<path fill="#C1FFFA" d="M1263.487,535.492v-37.895h-1.129c-2.673,0-4.521-0.314-5.521-0.947c-1.012-0.627-1.514-1.732-1.514-3.312
			c0-1.462,0.416-2.515,1.237-3.155c0.837-0.666,2.166-0.982,4.029-0.982h2.764h5.693c1.057,0,1.879,0.215,2.467,0.648
			c0.603,0.434,0.896,1.021,0.896,1.775v4.02c2.883-2.687,5.727-4.658,8.545-5.949c2.807-1.271,5.74-1.92,8.77-1.92
			c5.955,0,10.642,1.858,14.052,5.563c3.407,3.705,5.104,8.834,5.104,15.368v26.785h2.781c1.965,0,3.396,0.324,4.26,0.966
			c0.865,0.646,1.295,1.694,1.295,3.104c0,1.537-0.467,2.637-1.395,3.289c-0.916,0.646-2.562,0.969-4.92,0.969h-13.064
			c-2.531,0-4.148-0.281-4.857-0.887c-0.7-0.58-1.062-1.721-1.062-3.371c0-1.533,0.414-2.584,1.238-3.188
			c0.836-0.602,2.396-0.885,4.684-0.885h2.06v-24.596c0-4.615-1.041-8.127-3.134-10.557c-2.084-2.415-5.121-3.63-9.098-3.63
			c-4.021,0-7.562,1.354-10.644,4.083c-3.073,2.72-4.612,6.084-4.612,10.104v24.596h2.074c2.356,0,3.954,0.283,4.782,0.885
			c0.836,0.604,1.238,1.652,1.238,3.188c0,1.65-0.35,2.791-1.057,3.371c-0.715,0.604-2.453,0.887-5.207,0.887h-10.758h-3.193
			c-1.617,0-2.828-0.338-3.637-1.025c-0.81-0.688-1.211-1.771-1.211-3.232c0-1.57,0.469-2.646,1.393-3.219
			c0.922-0.566,2.729-0.852,5.406-0.852H1263.487z"/>
	</g>
</g>
<g>
	<polygon fill="#C1FFFA" points="-84.176,513.301 -57.865,513.301 -57.865,486.936 -50.602,486.936 -50.602,513.301 
		-24.284,513.301 -24.284,520.521 -50.602,520.521 -50.602,546.67 -57.865,546.67 -57.865,520.521 -84.176,520.521 	"/>
	<g>
		<path fill="#C1FFFA" d="M-439.355,632.211c0,21.885,7.562,35.41,35.416,43.764v0.791c-53.322,1.588-67.242-15.123-67.242-58.486
			v-65.652c0-13.52,0.789-24.664-12.741-34.213c-6.355-4.771-14.722-7.959-23.077-9.955v-0.787
			c12.738-1.192,20.296-5.563,26.669-11.537c9.543-9.943,9.147-17.905,9.147-29.846v-74.006c0-15.111,1.592-31.424,16.715-41.367
			c15.511-10.351,31.029-10.351,50.527-10.351v0.8c-28.654,7.96-35.416,21.085-35.416,43.756v74.406
			c0,25.459-6.375,41.783-39.789,48.143v0.787c34.614,7.572,39.789,26.649,39.789,54.928L-439.355,632.211L-439.355,632.211z"/>
		<path fill="#C1FFFA" d="M391.083,385.129c0-21.892-7.555-35.416-35.408-43.774v-0.789c53.312-1.591,67.234,15.12,67.234,58.479
			v65.658c0,13.523-0.797,24.67,12.731,34.209c6.363,4.771,14.72,7.967,23.074,9.948v0.808
			c-12.734,1.185-20.293,5.562-26.664,11.533c-9.537,9.944-9.145,17.898-9.145,29.836v74.004c0,15.123-1.584,31.424-16.705,41.379
			c-15.517,10.346-31.029,10.346-50.527,10.346v-0.791c28.644-7.961,35.406-21.088,35.406-43.764v-74.412
			c0-25.455,6.365-41.774,39.787-48.131v-0.807c-34.609-7.561-39.787-26.65-39.787-54.904v-68.828H391.083z"/>
		<polygon fill="#C1FFFA" points="-341.9,391.708 -341.9,395.311 -362.893,395.311 -362.893,447.685 -367.275,447.685 
			-367.275,395.311 -388.268,395.311 -388.268,391.708 		"/>
		<path fill="#C1FFFA" d="M-332.527,391.708v25.521h0.161c3.075-4.754,7.113-7.133,12.138-7.133c4.162,0,7.488,1.337,9.983,4.002
			c2.483,2.683,3.722,6.35,3.722,11.021v22.564h-3.931v-20.992c0-8.502-3.334-12.745-10.01-12.745c-4.789,0-8.808,2.63-12.063,7.892
			v25.848h-3.92v-55.979H-332.527z"/>
		<path fill="#C1FFFA" d="M-264.822,427.879h-29.049c-0.072,0.648-0.111,1.291-0.111,1.938c0,4.107,1.465,7.6,4.397,10.452
			c2.951,2.858,6.413,4.276,10.424,4.276c4.672,0,9.245-1.813,13.696-5.479v4.448c-4.208,3.257-8.936,4.889-14.172,4.889
			c-5.312,0-9.713-1.845-13.19-5.527c-3.47-3.688-5.211-8.375-5.211-14.063c0-5.396,1.608-9.864,4.815-13.407
			c3.203-3.547,7.229-5.311,12.096-5.311c4.572,0,8.434,1.599,11.585,4.798C-266.393,418.076-264.822,422.411-264.822,427.879
			 M-293.346,424.723h23.878c-1.38-7.195-5.272-10.776-11.658-10.776c-3.017,0-5.627,0.944-7.829,2.823
			C-291.163,418.65-292.618,421.295-293.346,424.723"/>
		<polygon fill="#C1FFFA" points="-182.363,391.708 -182.363,447.685 -185.925,447.685 -228.471,398.76 -228.471,447.685 
			-232.811,447.685 -232.811,391.708 -229.143,391.708 -186.688,440.631 -186.688,391.708 		"/>
		<path fill="#C1FFFA" d="M-139.442,427.879h-29.062c-0.073,0.648-0.112,1.291-0.112,1.938c0,4.107,1.465,7.6,4.398,10.452
			c2.942,2.858,6.42,4.276,10.428,4.276c4.66,0,9.232-1.813,13.704-5.479v4.448c-4.227,3.257-8.958,4.889-14.183,4.889
			c-5.322,0-9.713-1.845-13.191-5.527c-3.469-3.688-5.209-8.375-5.209-14.063c0-5.396,1.598-9.864,4.816-13.407
			c3.193-3.547,7.239-5.311,12.096-5.311c4.563,0,8.428,1.599,11.576,4.798C-141.025,418.076-139.442,422.411-139.442,427.879
			 M-167.978,424.723h23.877c-1.389-7.195-5.272-10.776-11.657-10.776c-3.015,0-5.616,0.944-7.83,2.823
			C-165.796,418.65-167.25,421.295-167.978,424.723"/>
		<polygon fill="#C1FFFA" points="-78.514,410.821 -94.445,448.402 -96.33,448.402 -107.667,418.471 -119.097,448.402 
			-120.865,448.402 -136.65,410.821 -132.774,410.821 -120.195,440.868 -108.634,410.821 -106.492,410.821 -95.277,440.868 
			-82.416,410.821 		"/>
		<polygon fill="#C1FFFA" points="-20.218,391.708 -41.968,417.624 -41.968,447.685 -46.301,447.685 -46.301,417.624 
			-68.054,391.708 -62.821,391.708 -44.112,413.875 -25.499,391.708 		"/>
		<path fill="#C1FFFA" d="M-9.478,410.096c5.342,0,9.786,1.83,13.366,5.488c3.554,3.66,5.345,8.229,5.345,13.701
			c0,5.452-1.791,9.999-5.345,13.646c-3.58,3.648-8.024,5.473-13.366,5.473c-5.343,0-9.806-1.824-13.402-5.473
			c-3.589-3.646-5.387-8.194-5.387-13.646c0-5.473,1.798-10.041,5.387-13.701C-19.283,411.926-14.818,410.096-9.478,410.096
			 M-9.478,444.551c4.139,0,7.594-1.447,10.377-4.342c2.778-2.908,4.163-6.537,4.163-10.924c0-4.354-1.393-7.99-4.192-10.938
			c-2.781-2.932-6.242-4.401-10.348-4.401c-4.169,0-7.64,1.454-10.445,4.367c-2.783,2.903-4.18,6.571-4.18,10.974
			c0,4.387,1.396,8.016,4.18,10.924C-17.117,443.104-13.646,444.551-9.478,444.551"/>
		<path fill="#C1FFFA" d="M43.364,414.463l-2.273,3.69c-3.08-2.815-5.547-4.217-7.418-4.217c-3.684,0-7.629,3.528-11.817,10.577
			v23.17h-3.916v-36.863h3.916v9.7h0.157c4.414-6.948,8.703-10.425,12.896-10.425C37.315,410.096,40.143,411.551,43.364,414.463"/>
		<path fill="#C1FFFA" d="M52.141,447.674h-3.918v-55.969h3.918V447.674z M78.223,410.821l-20.157,17.492l23.278,19.359h-5.381
			l-23.262-19.348l20.363-17.505L78.223,410.821L78.223,410.821z"/>
		<path fill="#C1FFFA" d="M37.836,569.084l25.875,56.381h-4.529l-8.864-19.361H22.95l-8.824,19.361H9.583l25.881-56.381H37.836
			L37.836,569.084z M48.67,602.504l-12.061-26.355l-12.027,26.355H48.67z"/>
		<path fill="#C1FFFA" d="M101.018,589.686v4.371c-3.534-1.551-6.729-2.318-9.571-2.318c-4.117,0-7.468,1.424-10.045,4.277
			c-2.58,2.854-3.865,6.57-3.865,11.129c0,4.652,1.285,8.357,3.865,11.088c2.577,2.742,6.028,4.1,10.354,4.1
			c3.158,0,6.463-0.701,9.935-2.111v4.076c-3.681,1.266-7.086,1.887-10.242,1.887c-5.4,0-9.76-1.707-13.082-5.125
			c-3.326-3.424-4.986-7.914-4.986-13.469c0-5.791,1.672-10.52,5.029-14.188c3.342-3.674,7.631-5.51,12.834-5.51
			C94.098,587.891,97.354,588.479,101.018,589.686"/>
		<path fill="#C1FFFA" d="M144.614,619.057v3.275c-3.404,2.572-5.883,3.85-7.453,3.85c-0.916,0-1.543-0.307-1.894-0.893
			c-0.348-0.605-0.588-1.834-0.75-3.674c-3.877,3.029-7.721,4.564-11.551,4.564c-2.771,0-5.125-0.91-7.043-2.727
			c-1.926-1.812-2.881-4.018-2.881-6.602c0-4.016,1.844-7.172,5.562-9.484c3.721-2.312,9.016-3.637,15.911-3.982V598.7
			c0-5.033-2.727-7.527-8.18-7.527c-3.481,0-7.227,1.553-11.264,4.688v-4.051c4.164-2.627,8.141-3.922,11.903-3.922
			c3.343,0,6.089,0.814,8.263,2.451c2.158,1.643,3.242,4.031,3.242,7.16v22.951c0,1.27,0.282,1.879,0.883,1.879
			C140.108,622.333,141.854,621.243,144.614,619.057 M134.518,618.176v-11.514c-5.051-0.172-9.241,0.709-12.575,2.674
			c-3.316,1.965-4.978,4.473-4.978,7.521c0,1.707,0.689,3.154,2.072,4.322c1.396,1.172,3.143,1.762,5.215,1.762
			C127.622,622.94,131.045,621.348,134.518,618.176"/>
		<path fill="#C1FFFA" d="M187.883,569.493v55.973h-3.977v-2.885c-3.359,2.404-6.992,3.604-10.896,3.604
			c-5.221,0-9.641-1.842-13.229-5.547c-3.607-3.689-5.396-8.244-5.396-13.645c0-5.469,1.779-10.033,5.314-13.66
			c3.535-3.635,7.969-5.441,13.311-5.441c3.396,0,7.031,0.975,10.896,2.965v-21.363H187.883L187.883,569.493z M183.907,618.977
			v-23.799c-3.519-2.305-7.095-3.439-10.73-3.439c-4.252,0-7.737,1.402-10.502,4.213c-2.746,2.824-4.115,6.424-4.115,10.795
			c0,4.469,1.449,8.182,4.398,11.146c2.939,2.965,6.609,4.439,11.016,4.439C177.389,622.333,180.711,621.223,183.907,618.977"/>
		<path fill="#C1FFFA" d="M235.282,605.67h-29.06c-0.08,0.643-0.106,1.287-0.106,1.918c0,4.117,1.459,7.605,4.405,10.459
			c2.937,2.861,6.419,4.285,10.421,4.285c4.661,0,9.231-1.824,13.696-5.477v4.439c-4.225,3.258-8.94,4.887-14.178,4.887
			c-5.314,0-9.719-1.84-13.188-5.521c-3.482-3.689-5.207-8.377-5.207-14.07c0-5.391,1.598-9.859,4.801-13.402
			c3.205-3.535,7.244-5.297,12.109-5.297c4.571,0,8.43,1.588,11.577,4.773C233.704,595.86,235.282,600.192,235.282,605.67
			 M206.749,602.504h23.889c-1.396-7.176-5.289-10.775-11.659-10.775c-3.027,0-5.628,0.938-7.832,2.814
			C208.932,596.426,207.473,599.09,206.749,602.504"/>
		<path fill="#C1FFFA" d="M252.87,588.606v6.5h0.158c2.987-4.811,6.903-7.215,11.739-7.215c5.64,0,9.604,2.938,11.896,8.85
			c3.463-5.912,7.732-8.85,12.799-8.85c3.818,0,6.904,1.355,9.246,4.086c2.34,2.723,3.516,6.332,3.516,10.838v22.65h-3.93v-20.914
			c0-3.996-0.836-7.133-2.514-9.4c-1.685-2.283-4.043-3.412-7.08-3.412c-2.258,0-4.242,0.668-5.912,2.033
			c-1.68,1.361-3.416,3.555-5.197,6.574v25.119h-3.975v-21.002c0-4.076-0.871-7.227-2.615-9.439
			c-1.752-2.197-4.096-3.285-7.033-3.285c-4.274,0-7.979,2.621-11.102,7.881v25.846h-3.938v-36.857L252.87,588.606L252.87,588.606z"
			/>
		<polygon fill="#C1FFFA" points="346.704,588.606 319.118,644.342 315.094,644.342 327.975,618.301 312.442,588.606 
			316.573,588.606 329.94,614.338 342.674,588.606 		"/>
		<path fill="#C1FFFA" d="M-333.889,475.519c0.394-1.069,0.951-1.815,1.65-2.255c0.717-0.426,1.733-0.645,3.075-0.645
			c1.47,0,2.483,0.36,3.087,1.065c0.581,0.702,0.87,2.174,0.87,4.377c0,3.86,0.039,7.45,0.124,10.784s0.111,4.771,0.111,4.341
			c0,1.864-0.309,3.104-0.928,3.751c-0.643,0.662-1.756,0.979-3.377,0.979c-2.604,0-4.302-1.84-5.082-5.554
			c-0.287-1.104-0.492-1.946-0.654-2.543c-0.75-2.954-2.545-5.358-5.385-7.243c-2.832-1.863-6.158-2.801-9.983-2.801
			c-6.985,0-12.567,2.549-16.791,7.662c-4.222,5.096-6.325,11.943-6.325,20.539c0,8.578,2.143,15.436,6.41,20.529
			c4.277,5.117,9.929,7.666,16.941,7.666c2.287,0,4.604-0.321,6.979-0.971c2.367-0.658,4.691-1.639,6.971-2.926
			c1.074-0.557,2.521-1.495,4.387-2.812c1.836-1.318,3.164-1.99,3.957-1.99c1.209,0,2.242,0.398,3.102,1.214
			c0.844,0.819,1.266,1.808,1.266,2.985c0,1.188-0.457,2.312-1.39,3.402c-0.924,1.081-2.653,2.404-5.16,3.982
			c-3.317,2.189-6.646,3.775-10.003,4.797c-3.35,1.02-6.876,1.549-10.59,1.549c-9.725,0-17.762-3.443-24.109-10.328
			c-6.354-6.879-9.511-15.683-9.511-26.402c0-10.601,3.203-19.406,9.636-26.42c6.42-7.008,14.493-10.518,24.232-10.518
			c2.595,0,5.25,0.307,7.941,0.941C-339.738,473.309-336.879,474.258-333.889,475.519"/>
		<path fill="#C1FFFA" d="M-256.328,516.43c0,8.441-2.877,15.328-8.637,20.688c-5.76,5.362-13.221,8.036-22.407,8.036
			c-9.147,0-16.595-2.674-22.346-8.036c-5.753-5.358-8.63-12.247-8.63-20.688c0-8.434,2.877-15.329,8.63-20.668
			c5.751-5.336,13.198-8.006,22.346-8.006c9.14,0,16.601,2.676,22.373,8.037C-259.217,501.163-256.328,508.032-256.328,516.43
			 M-287.372,536.881c6.073,0,11.043-1.926,14.927-5.77c3.883-3.837,5.829-8.729,5.829-14.684c0-5.961-1.954-10.875-5.856-14.752
			c-3.902-3.885-8.86-5.814-14.898-5.814c-6.025,0-10.988,1.932-14.874,5.814c-3.883,3.877-5.821,8.791-5.821,14.752
			c0,5.98,1.932,10.904,5.795,14.717C-298.396,534.961-293.445,536.881-287.372,536.881"/>
		<path fill="#C1FFFA" d="M-196.918,543.68c-0.832,0-1.408-0.209-1.748-0.633c-0.341-0.404-0.5-1.201-0.5-2.375v-4.863
			c-2.359,2.957-5.322,5.256-8.865,6.898c-3.551,1.631-7.389,2.447-11.527,2.447c-7.453,0-13.696-2.643-18.713-7.958
			c-5.021-5.294-7.543-11.888-7.543-19.767c0-8.157,2.682-14.946,8.039-20.369c5.373-5.407,12.057-8.122,20.039-8.122
			c4.065,0,7.713,0.728,10.937,2.149c3.245,1.439,6.018,3.562,8.35,6.352v-22.631h-3.14c-3.436,0-5.641-0.314-6.646-0.926
			c-1.005-0.609-1.516-1.719-1.516-3.334c0-1.42,0.406-2.483,1.21-3.188c0.812-0.715,1.987-1.062,3.517-1.062h12.118
			c1.185,0,2.042,0.188,2.576,0.582c0.539,0.396,0.797,1.006,0.797,1.836v66.625h2.665c1.926,0,3.327,0.33,4.201,0.977
			c0.859,0.648,1.288,1.684,1.288,3.104c0,1.334-0.375,2.385-1.11,3.137c-0.75,0.76-1.768,1.121-3.018,1.121H-196.918
			L-196.918,543.68z M-235.641,517.129c0,5.444,1.759,9.901,5.264,13.362c3.508,3.479,7.953,5.204,13.359,5.204
			c5.436,0,9.91-1.811,13.414-5.406c3.505-3.6,5.261-8.19,5.261-13.74c0-5.48-1.744-9.994-5.222-13.537
			c-3.488-3.551-7.976-5.323-13.453-5.323c-5.553,0-10.049,1.788-13.483,5.376C-233.92,506.648-235.641,511.338-235.641,517.129"/>
		<path fill="#C1FFFA" d="M-165.765,518.971c0.31,5.679,2.234,10.063,5.759,13.152c3.528,3.092,8.344,4.641,14.451,4.641
			c4.614,0,9.643-1.236,15.082-3.688c5.434-2.468,8.718-3.698,9.867-3.698c1.177,0,2.162,0.371,2.959,1.119
			c0.781,0.754,1.175,1.68,1.175,2.789c0,1.127-0.414,2.186-1.229,3.115c-0.835,0.956-2.149,1.88-3.965,2.793
			c-3.937,1.926-8.01,3.41-12.215,4.428c-4.188,1.027-8.355,1.531-12.498,1.531c-8.981,0-16.18-2.584-21.58-7.771
			c-5.404-5.187-8.092-12.058-8.092-20.604c0-8.703,2.857-15.755,8.575-21.161c5.706-5.393,13.147-8.093,22.334-8.093
			c8.309,0,15.214,2.521,20.693,7.57c5.48,5.035,8.212,11.15,8.212,18.318c0,2.199-0.46,3.686-1.385,4.438
			c-0.925,0.742-3.434,1.119-7.535,1.119h-0.896h-39.713V518.971z M-165.475,511.223h38.487c-0.592-4.69-2.558-8.459-5.884-11.321
			c-3.327-2.854-7.419-4.284-12.27-4.284c-5.237,0-9.644,1.373-13.235,4.139C-161.966,502.521-164.327,506.338-165.475,511.223"/>
		<path fill="#C1FFFA" d="M19.891,543.676h-9.348h-2.66c-1.459,0-2.553-0.361-3.274-1.055c-0.729-0.717-1.097-1.787-1.097-3.203
			c0-1.533,0.422-2.584,1.271-3.188c0.852-0.602,2.446-0.885,4.817-0.885h1.064v-53.278H9.719c-2.369,0-3.994-0.308-4.885-0.938
			c-0.881-0.629-1.322-1.729-1.322-3.307c0-1.456,0.367-2.531,1.097-3.216c0.723-0.7,1.858-1.041,3.395-1.041h2.541h9.348h13.056
			c9.811,0,17.639,3.165,23.475,9.494c5.842,6.312,8.758,14.86,8.758,25.614c0,5.261-0.844,10.115-2.521,14.604
			c-1.672,4.496-4.117,8.436-7.312,11.828c-2.94,3.062-6.53,5.314-10.772,6.709c-4.232,1.398-9.688,2.104-16.353,2.104
			c-0.789,0-2.11-0.047-3.983-0.127C22.35,543.713,20.911,543.676,19.891,543.676 M19.891,535.348
			c1.263,0.123,2.506,0.203,3.746,0.259c1.246,0.065,2.459,0.101,3.638,0.101c9.692,0,16.799-2.178,21.315-6.509
			c4.516-4.338,6.754-11.18,6.754-20.522c0-9.369-2.256-16.201-6.785-20.479c-4.532-4.277-11.774-6.404-21.754-6.404
			c-1.854,0-3.27,0.02-4.223,0.055c-0.975,0.037-1.873,0.107-2.691,0.224V535.348z"/>
		<path fill="#C1FFFA" d="M85.301,518.971c0.322,5.679,2.24,10.063,5.775,13.152c3.522,3.092,8.336,4.641,14.459,4.641
			c4.6,0,9.627-1.236,15.062-3.688c5.445-2.468,8.722-3.698,9.88-3.698c1.184,0,2.163,0.371,2.944,1.119
			c0.789,0.754,1.197,1.68,1.197,2.789c0,1.127-0.426,2.186-1.258,3.115c-0.828,0.956-2.133,1.88-3.949,2.793
			c-3.949,1.926-8.008,3.41-12.211,4.428c-4.193,1.027-8.363,1.531-12.504,1.531c-8.994,0-16.188-2.584-21.574-7.771
			c-5.406-5.187-8.104-12.058-8.104-20.604c0-8.703,2.86-15.755,8.569-21.161c5.724-5.393,13.176-8.093,22.338-8.093
			c8.316,0,15.23,2.521,20.701,7.57c5.482,5.035,8.217,11.15,8.217,18.318c0,2.199-0.469,3.686-1.396,4.438
			c-0.918,0.742-3.43,1.119-7.527,1.119h-0.883H85.301V518.971z M85.604,511.223h38.482c-0.588-4.69-2.549-8.459-5.883-11.321
			c-3.334-2.854-7.42-4.284-12.273-4.284c-5.231,0-9.639,1.373-13.229,4.139C89.112,502.521,86.752,506.338,85.604,511.223"/>
		<path fill="#C1FFFA" d="M140.485,539.418v-10.521c0-1.733,0.291-2.974,0.881-3.724c0.596-0.74,1.551-1.119,2.873-1.119
			c1.471,0,2.646,1.098,3.487,3.311c0.568,1.333,1.093,2.34,1.554,3.02c1.504,2.127,3.729,3.824,6.672,5.111
			c2.92,1.275,6.162,1.918,9.696,1.918c3.781,0,6.832-0.855,9.117-2.527c2.293-1.711,3.433-3.93,3.433-6.692
			c0-2.799-0.916-4.797-2.765-5.972c-1.846-1.186-4.983-1.776-9.467-1.776h-2.942c-7.304,0-12.863-1.396-16.691-4.188
			c-3.818-2.81-5.75-6.86-5.75-12.186c0-5.197,1.885-9.244,5.613-12.105c3.731-2.885,8.994-4.323,15.744-4.323
			c2.762,0,5.561,0.42,8.428,1.267c2.86,0.844,4.356,1.271,4.506,1.271c0.396,0,1.15-0.375,2.248-1.145
			c1.113-0.775,2.205-1.162,3.281-1.162c1.217,0,2.108,0.496,2.715,1.479c0.58,0.993,0.873,2.472,0.873,4.438v6.906
			c0,2.096-0.285,3.6-0.855,4.521c-0.567,0.928-1.483,1.404-2.731,1.404c-1.076,0-2.408-1.02-3.979-3.021
			c-1.104-1.383-2.02-2.422-2.727-3.143c-1.906-1.927-3.918-3.319-6.068-4.162c-2.146-0.844-4.662-1.269-7.562-1.269
			c-3.361,0-6.068,0.82-8.125,2.451c-2.066,1.633-3.084,3.714-3.084,6.237c0,2.484,1.055,4.261,3.153,5.315
			c2.113,1.062,6.666,1.685,13.638,1.829c7.436,0.21,12.869,1.635,16.303,4.291c3.443,2.664,5.147,6.771,5.147,12.328
			c0,5.312-1.891,9.577-5.682,12.764c-3.783,3.197-8.904,4.797-15.35,4.797c-2.029,0-4.306-0.207-6.806-0.617
			c-2.506-0.42-5.651-1.115-9.444-2.102c-1.256,0.893-2.32,1.598-3.213,2.031c-0.896,0.449-1.646,0.688-2.261,0.688
			c-1.258,0-2.213-0.48-2.869-1.455C140.805,542.627,140.485,541.241,140.485,539.418"/>
		<path fill="#C1FFFA" d="M210.877,535.348h5.146c1.551,0,2.68,0.324,3.401,0.967c0.736,0.646,1.104,1.693,1.104,3.104
			c0,1.619-0.351,2.746-1.037,3.346c-0.688,0.609-1.965,0.912-3.82,0.912h-18.522c-1.578,0-2.757-0.357-3.558-1.055
			c-0.789-0.715-1.182-1.787-1.182-3.203c0-1.373,0.42-2.396,1.254-3.08c0.83-0.664,2.059-0.987,3.729-0.987h4.498v-37.897h-4.434
			c-1.617,0-2.859-0.367-3.701-1.096c-0.844-0.734-1.274-1.783-1.274-3.163c0-1.373,0.395-2.422,1.182-3.104
			c0.791-0.688,1.967-1.035,3.557-1.035h10.234c1.063,0,1.9,0.216,2.514,0.648c0.607,0.434,0.91,1.022,0.91,1.776v43.868H210.877z
			 M199.948,476.385c0-3.149,0.381-5.121,1.155-5.941c0.763-0.82,2.404-1.223,4.929-1.223c2.442,0,4.057,0.339,4.846,1.027
			c0.793,0.682,1.189,2.305,1.189,4.865c0,2.5-0.367,4.055-1.099,4.65s-2.379,0.898-4.938,0.898c-2.523,0-4.166-0.275-4.931-0.83
			C200.329,479.28,199.948,478.131,199.948,476.385"/>
		<path fill="#C1FFFA" d="M273.151,540.545c0,5.525-0.283,9.434-0.836,11.725c-0.544,2.32-1.496,4.334-2.828,6.062
			c-2.213,2.924-5.31,5.131-9.273,6.656c-4.002,1.525-8.682,2.285-14.082,2.285c-4.5,0-7.772-0.439-9.848-1.307
			c-2.066-0.873-3.094-2.242-3.094-4.139c0-1.219,0.502-2.293,1.504-3.213c1.01-0.932,2.19-1.406,3.569-1.406
			c1.074,0,2.699,0.145,4.91,0.449c2.213,0.299,3.877,0.445,5.021,0.445c5.842,0,9.975-1.348,12.426-4.031
			c2.439-2.678,3.67-7.271,3.67-13.762v-7.155c-2.404,2.804-5.078,4.843-7.988,6.149c-2.92,1.297-6.262,1.941-10.053,1.941
			c-7.371,0-13.469-2.461-18.295-7.371c-4.828-4.887-7.252-11.104-7.252-18.637c0-7.572,2.486-13.84,7.453-18.822
			c4.979-4.988,11.117-7.479,18.455-7.479c3.035,0,5.994,0.563,8.885,1.678c2.9,1.121,5.83,2.832,8.795,5.121v-4.254
			c0-0.836,0.256-1.446,0.789-1.843c0.523-0.396,1.371-0.586,2.506-0.586h8.935c1.569,0,2.754,0.341,3.555,1.035
			c0.776,0.688,1.176,1.726,1.176,3.105c0,1.578-0.5,2.678-1.479,3.309c-0.982,0.629-2.836,0.936-5.562,0.936h-1.057
			L273.151,540.545L273.151,540.545z M247.493,497.803c-5.17,0-9.385,1.596-12.652,4.799c-3.274,3.195-4.897,7.326-4.897,12.416
			c0,4.988,1.623,9.105,4.897,12.324c3.271,3.203,7.482,4.811,12.652,4.811c5.121,0,9.326-1.607,12.623-4.811
			c3.287-3.219,4.938-7.336,4.938-12.324c0-5.012-1.649-9.145-4.938-12.361C256.819,499.418,252.614,497.803,247.493,497.803"/>
		<path fill="#C1FFFA" d="M295.487,535.348v-37.895h-1.129c-2.673,0-4.521-0.314-5.521-0.947c-1.012-0.627-1.514-1.732-1.514-3.312
			c0-1.462,0.416-2.515,1.237-3.155c0.837-0.666,2.166-0.982,4.029-0.982h2.764h5.693c1.057,0,1.879,0.215,2.467,0.648
			c0.603,0.434,0.896,1.021,0.896,1.775v4.02c2.883-2.687,5.727-4.658,8.545-5.949c2.807-1.271,5.74-1.92,8.77-1.92
			c5.955,0,10.642,1.858,14.052,5.563c3.407,3.705,5.104,8.834,5.104,15.368v26.785h2.781c1.965,0,3.396,0.324,4.26,0.966
			c0.865,0.646,1.295,1.694,1.295,3.104c0,1.537-0.467,2.637-1.395,3.289c-0.916,0.646-2.562,0.969-4.92,0.969h-13.064
			c-2.531,0-4.148-0.281-4.857-0.887c-0.7-0.58-1.062-1.721-1.062-3.371c0-1.533,0.414-2.584,1.238-3.188
			c0.836-0.602,2.396-0.885,4.684-0.885h2.06V510.75c0-4.615-1.041-8.127-3.134-10.557c-2.084-2.415-5.121-3.63-9.098-3.63
			c-4.021,0-7.562,1.354-10.644,4.083c-3.073,2.72-4.612,6.084-4.612,10.104v24.596h2.074c2.356,0,3.954,0.283,4.782,0.885
			c0.836,0.604,1.238,1.652,1.238,3.188c0,1.65-0.35,2.791-1.057,3.371c-0.715,0.604-2.453,0.887-5.207,0.887h-10.758h-3.193
			c-1.617,0-2.828-0.338-3.637-1.025c-0.81-0.688-1.211-1.771-1.211-3.232c0-1.57,0.469-2.646,1.393-3.219
			c0.922-0.566,2.729-0.852,5.406-0.852H295.487z"/>
	</g>
</g>
</svg>
